<svg width="75" height="75" viewBox="0 0 75 75" fill="none" xmlns="http://www.w3.org/2000/svg">
<path fill-rule="evenodd" clip-rule="evenodd" d="M37.0833 7.41667C20.6989 7.41667 7.41667 20.6989 7.41667 37.0833C7.41667 53.4678 20.6989 66.75 37.0833 66.75C53.4678 66.75 66.75 53.4678 66.75 37.0833C66.75 20.6989 53.4678 7.41667 37.0833 7.41667ZM0 37.0833C0 16.6028 16.6028 0 37.0833 0C57.5639 0 74.1667 16.6028 74.1667 37.0833C74.1667 57.5639 57.5639 74.1667 37.0833 74.1667C16.6028 74.1667 0 57.5639 0 37.0833ZM37.0833 18.5417C39.1314 18.5417 40.7917 20.2019 40.7917 22.25V37.0833C40.7917 39.1314 39.1314 40.7917 37.0833 40.7917C35.0353 40.7917 33.375 39.1314 33.375 37.0833V22.25C33.375 20.2019 35.0353 18.5417 37.0833 18.5417Z" fill="#FA7070"/>
<path d="M40.7917 51.9166C40.7917 53.9646 39.1314 55.6249 37.0833 55.6249C35.0353 55.6249 33.375 53.9646 33.375 51.9166C33.375 49.8685 35.0353 48.2083 37.0833 48.2083C39.1314 48.2083 40.7917 49.8685 40.7917 51.9166Z" fill="#FA7070"/>
</svg>
